<?xml version="1.0" encoding="UTF-8" standalone="no"?>
<!-- Created with Inkscape (http://www.inkscape.org/) -->

<svg
   xmlns:svg="http://www.w3.org/2000/svg"
   xmlns="http://www.w3.org/2000/svg"
   version="1.1"
   width="189.31152"
   height="200"
   id="svg5453">
  <defs
     id="defs5455" />
  <g
     transform="translate(-48.125073,-275.21933)"
     id="layer1">
    <g
       id="g3383">
      <path
         d="m 59.958583,375.71961 c -0.82235,-2.9054 -3.28575,-0.751 -1.44442,-8.85208 5.50648,0.73108 13.18074,2.57067 18.44793,1.29845 6.21229,-0.70096 14.14449,-3.22062 17.01861,-9.40294 1.77372,-4.3952 0.20936,-12.18395 3.49298,-16.03849 3.228827,-4.69442 5.531987,-10.00334 9.569367,-14.10902 3.63293,-4.13337 7.55664,-8.03552 10.98901,-12.32482 3.01067,-3.46253 6.4817,0.14573 4.4614,3.63692 -2.6105,10.30938 -11.67768,17.437 -14.37965,27.72258 -1.99371,6.18523 -3.95999,12.41128 -4.69801,18.89234 -0.85956,4.40832 -1.98945,9.73086 -6.568307,11.71616 -5.79925,2.8116 -11.82351,5.922 -18.46658,5.6378 -6.07011,0.817 -9.03503,-4.0979 -14.78652,-4.9903 -0.8909,-0.4275 -0.5221,-1.3815 -3.63571,-3.1866 l -1e-4,0 z"
         id="path5695"
         style="fill:#000000;fill-opacity:1;stroke:none" />
      <path
         d="m 60.257043,382.58391 c -0.90479,0.8273 -2.06023,1.3602 -2.8031,2.3555 -0.9659,0.7287 -2.28232,1.3903 -2.42105,2.7397 0.12435,1.2237 1.78853,0.3595 2.59616,0.5684 1.47814,-0.1458 2.96054,-0.2429 4.42391,-0.5106 1.65752,-0.136 3.3064,-0.3934 4.94251,-0.6932 1.22082,-0.34 2.41352,-0.9579 3.71439,-0.8588 0.95332,-0.3157 2.6514,-0.17 2.78674,-1.4874 -0.17245,-0.9958 -1.34815,-1.1522 -2.0339,-1.6909 -1.84425,-1.0702 -3.5982,-2.4099 -5.68169,-2.9958 -1.49052,-0.2963 -2.63664,0.9303 -3.82895,1.5938 -0.56965,0.3158 -1.17161,0.5849 -1.69502,0.9793 z"
         id="path5697"
         style="fill:#000000;fill-opacity:1;stroke:none" />
      <path
         d="m 96.668823,383.77801 c 3.535877,-1.4845 7.140927,-1.0935 10.901077,-1.248 2.02681,-0.053 4.33978,-0.6674 6.36148,-0.733 0.61284,0.049 3.19468,2.1932 3.45305,1.4976 -0.55187,-0.7524 -3.17184,-2.1607 -3.87479,-2.762 -1.39599,-0.7622 -2.76862,-1.6079 -4.32068,-2.0194 -1.29393,-0.408 -2.55599,-0.9093 -3.80062,-1.4403 -1.20902,-0.3643 -2.5011,-0.058 -3.58834,0.5218 -1.03672,0.4517 -2.126527,0.8262 -3.077167,1.4466 -1.13965,0.9589 -1.72534,2.3705 -2.6482,3.5091 -0.22102,0.4518 -0.11318,1.4073 0.59419,1.2276 l 0,0 z"
         id="path5699"
         style="fill:#000000;fill-opacity:1;stroke:none" />
      <path
         d="m 63.261303,378.62351 c 2.9378,2.7737 5.47165,3.8497 6.52299,4.5492 2.80072,1.329 2.38034,2.3506 5.45639,2.8048 2.70688,0.3837 8.88362,0.7461 11.64344,0.6665 3.68136,0.408 7.09998,-1.4151 10.56494,-2.3725 2.32496,-1.0833 4.822567,-1.7031 6.989607,-3.1497 2.18201,-1.3971 4.27924,-2.7057 5.73362,-4.8139 1.10798,-1.6594 0.87812,-3.5257 1.22806,-5.26086 0.15156,0.31089 0.54789,-3.1803 0.41824,-4.22469 -0.54274,-4.37626 -0.25114,-5.00484 -0.57597,-7.661 -0.82118,-3.46932 -0.034,-10.94427 -2.42556,-13.91375 0.68104,-2.32535 -0.33955,0.73011 -1.50291,2.75963 -2.95077,1.75944 -5.9169,3.95607 -7.20485,7.27481 -0.425047,2.54978 0.75162,5.9273 1.33643,8.29928 0.54527,2.10677 1.23982,3.1259 -0.27591,4.78624 -1.596127,1.82939 -7.398777,3.70204 -9.791407,4.66724 -3.46744,2.0179 -2.8971,2.7922 -6.68043,3.9012 -2.59451,0.4809 -5.34049,1.4709 -7.913,0.4469 -2.34848,0 -4.73149,-0.1798 -7.05869,0.1991 -4.45349,1.7172 -6.22726,-0.4129 -9.52531,-1.8085"
         id="path5701"
         style="fill:#000000;fill-opacity:1;stroke:none" />
      <path
         d="m 98.937833,283.74353 c 2.952957,2.89952 7.215147,2.91167 11.089847,2.9583 2.31394,0.37404 3.28726,2.89273 3.67267,4.92274 0.47605,2.34235 2.40832,3.89826 3.89602,5.6028 2.02817,2.53035 5.0112,4.62108 8.3687,4.58416 1.76027,0.1263 3.81457,2.77955 5.2688,1.49761 -0.25503,-2.26609 -2.15315,-3.92691 -2.98969,-5.99919 -2.09456,-3.46884 -5.20763,-6.13811 -8.49096,-8.4387 -2.31511,-1.66714 -4.17617,-3.85939 -6.53125,-5.47116 -1.92008,-1.45098 -4.03651,-2.81986 -6.46533,-3.17447 -3.25957,0.34975 -5.17504,-0.27689 -7.364907,1.22121 -0.64461,0.54503 -0.81589,1.36549 -0.45371,2.2967 z"
         id="path5703"
         style="fill:#000000;fill-opacity:1;stroke:none" />
      <path
         d="m 112.74145,331.61318 c 1.51286,-1.86825 3.49721,-3.37703 4.44892,-5.64313 1.94364,-3.91623 5.50697,-7.17036 6.00337,-11.7176 0.94195,-4.11297 0.25454,-8.35224 0.56315,-12.51815 -0.53056,-2.47497 -0.54897,-4.62788 -2.83216,-7.41131 -0.94184,-1.14786 -5.35637,-3.48488 -4.59528,-5.00775 0.11658,0.84669 2.36645,-0.4129 5.32636,2.46089 1.91051,1.23238 3.07703,2.33798 5.07274,3.54608 2.16015,1.9926 4.5402,5.5722 5.60917,8.34494 0.0904,3.22936 0.98974,5.32495 -0.47459,8.44696 -1.14315,2.63964 -1.65918,5.60329 -3.76234,7.72657 -1.37015,2.20245 -4.24806,5.46679 -6.37532,6.8998 -1.79121,1.46798 -1.96545,3.42658 -3.44927,5.23459 -1.53866,1.72933 -3.0899,2.10676 -4.62943,3.79965 -1.16661,1.90906 -2.4329,3.78848 -3.32331,5.84375 -0.15787,1.22267 -1.5713,2.03244 -1.66972,0.26231 1.61269,-9.76483 -1.5898,-1.61176 4.08786,-10.26711 z"
         id="path5705"
         style="fill:#000000;fill-opacity:1;stroke:none" />
      <path
         d="m 63.838533,416.01131 c 1.42927,-1.0929 -3.05492,-1.2027 -3.68613,-2.4351 -2.79586,-1.8279 -4.17291,-3.4178 -6.30517,-5.9545 -1.31108,-1.3378 -5.29775,0.5047 -5.72216,-1.0172 2.56256,-2.2938 5.93051,-3.8288 9.09254,-4.5093 2.74005,-0.3498 5.55375,-0.3692 8.24017,-0.991 5.08022,-2.3224 10.45836,-5.0651 16.22171,-4.3325 2.63027,0.8831 3.79348,6.1721 7.15594,3.8977 2.54939,-1.5398 5.24247,-3.1132 8.31464,-3.1234 2.61477,-0.1215 5.236777,0.5285 7.557277,1.721 2.1396,-0.082 6.49942,0.5669 5.24941,3.6467 -2.02248,3.2925 -5.90315,4.5472 -8.93029,6.6715 -4.247767,2.4434 -8.552517,5.7592 -13.687967,5.628 -5.10329,-0.3157 -10.15942,-2.8942 -15.29079,-1.3043 -2.77241,0.5402 -5.36891,1.9358 -8.20918,2.1024 z"
         id="path5707"
         style="fill:#000000;fill-opacity:1;stroke:none" />
      <path
         d="m 108.60706,402.28221 c 0.93534,-1.9091 -0.0695,-3.9736 -0.23025,-5.9327 -0.56504,-1.9328 -2.20459,-3.3012 -2.87912,-5.1831 -0.59434,-1.3145 -4.09777,-2.2199 -4.15271,-3.6573 0.9778,-1.1799 3.79548,0.3692 5.04719,0.3935 2.20352,0.3303 4.43887,-0.6466 6.6641,-0.8423 1.52759,0.073 2.16914,0.2768 3.66757,0 2.43533,0 5.80523,0.2137 8.2135,0.7826 1.43995,0.3789 2.38613,1.6545 2.71338,3.0545 0.2696,1.2935 1.18974,2.2282 2.06567,3.1453 0.97148,0.904 1.0237,2.3652 0.25114,3.4086 -1.14378,1.8294 -3.20532,2.7276 -4.82573,4.0561 -2.94835,2.0932 -6.17455,4.1849 -9.87476,4.4778 -1.81356,0.063 -3.54749,-0.7102 -4.95436,-1.8022 -0.75527,-0.3935 -1.72252,-0.9157 -1.70543,-1.9018 z"
         id="path5709"
         style="fill:#000000;fill-opacity:1;stroke:none" />
      <path
         d="m 84.432083,474.50901 c -1.56737,0.063 -5.06983,-0.4566 -6.43901,-1.3567 -1.8256,-0.5664 0.0884,-3.0807 1.94491,-3.5135 3.43047,-1.4734 6.94109,-3.4363 9.5869,-6.229 0.84605,-1.1819 2.68035,-1.3966 4.18452,-0.7923 2.85066,1.1688 3.55327,5.3978 1.40779,7.5405 -1.85057,2.1175 -4.60276,3.0283 -6.88697,4.556 -1.18716,0.5747 -2.70187,0.5815 -3.79814,-0.204 z"
         id="path5711"
         style="fill:#000000;fill-opacity:1;stroke:none" />
      <path
         d="m 96.668823,451.22931 c -0.36869,1.1838 -2.95486,2.9762 -3.97481,3.9283 -1.34373,0.8909 -2.76153,-0.7004 -3.19327,-1.894 -0.99271,-2.4788 -2.79699,-4.9276 -2.27756,-7.7387 0.33664,-1.9484 -0.34198,-5.8559 1.10958,-7.0941 1.79884,-2.2233 4.82321,-2.5823 6.11369,-5.0903 0.91042,-1.1051 2.69157,-11.5884 9.902737,-12.3953 1.09181,1.0444 0.40125,9.6959 -3.95086,15.5008 -0.430877,3.1157 -0.967787,0.3449 -2.764097,4.3583 -0.71092,1.5889 -0.50252,8.7457 -0.96541,10.425 z"
         id="path5713"
         style="fill:#000000;fill-opacity:1;stroke:none" />
      <path
         d="m 80.639083,473.64291 c 4.17311,-1.8323 9.0869,-1.9931 11.86591,-5.8136 -2.55453,-4.6527 -0.90021,0.4177 -8.56665,-13.837 -2.55711,-5.2244 -4.55972,-10.9302 -5.56273,-16.5379 -1.05833,-5.3079 0.66152,-11.5238 -1.23627,-16.6325 -3.48278,-3.4689 -7.30361,-0.4518 -10.88938,-3.9775 -5.34661,-2.8388 -10.55877,-5.6421 -10.86815,-7.778 4.7518,-0.4469 11.26371,-4.2714 15.64059,-6.3475 4.60073,-4.2451 4.32865,8.3333 8.93467,8.3046 4.59703,1.041 9.49728,0.7107 14.13103,0 2.21659,-4.8989 2.01957,-4.0348 5.36964,-7.15 4.045927,-1.7851 13.814547,-5.4881 15.163227,-10.1024 -3.83142,-11.1177 4.70356,-4.4676 7.82333,-2.2073 3.98662,1.6657 9.78922,3.6243 11.38817,7.4273 -7.68339,13.0146 -11.06863,5.6451 -14.83515,10.306 -4.70861,2.151 5.63438,12.0547 -6.10849,14.8484 -3.43712,4.7517 -8.90207,9.9455 -13.021737,13.9909 -1.40167,-4.1324 1.490037,-9.0915 1.461517,-13.5353 10.96161,-14.4053 1.96026,-10.713 -7.234337,-7.6955 -2.7232,3.3227 -0.0753,11.1333 -2.6155,14.7473 -3.1121,3.8896 -4.65158,5.5679 -3.51485,10.7738 1.55518,5.4323 3.82307,10.5576 6.67086,15.4483 3.11618,4.2883 3.07285,8.1254 3.91405,13.4945 1.528987,4.4355 -7.66731,2.3851 -11.81102,3.6598 -1.95715,0.6023 -4.35755,-0.3255 -6.09873,-1.4068 z"
         id="path5715"
         style="fill:#000000;fill-opacity:1;stroke:none" />
      <path
         d="m 106.38605,322.53764 c -3.43474,3.37995 -8.229087,4.72309 -11.920167,7.73337 -3.2571,2.06013 -3.51077,3.34352 -6.00667,8.30366 -2.71314,1.29796 -4.75204,7.28209 -7.99486,7.01249 -1.69818,-3.13706 -4.56021,-6.26344 -4.6595,-9.88822 -0.41144,-2.8116 3.42736,-9.97031 -0.84712,-11.07445 -2.38773,-1.99115 -4.18724,-5.72377 -7.92258,-4.8489 -3.28838,0.69853 -3.05526,8.82731 -3.02189,11.65348 -0.94641,4.2519 -1.88928,10.52263 -3.07348,14.73324 1.03269,-3.45233 -0.68051,-13.37212 -0.53332,-16.9046 -0.67822,-3.95461 -3.51713,-5.75388 -6.1457,-8.38138 -2.60219,-1.99941 -5.76281,-5.87532 -4.49774,-9.24313 1.83022,0.0486 2.3495,4.42046 4.55356,5.34681 2.73679,3.30271 5.93254,-1.10463 8.68304,-2.74214 3.88937,-1.25813 9.31846,0.55329 11.86941,-3.18418 1.71387,-3.46836 -2.08626,-6.8488 1.43431,-11.09875 1.09885,-1.32614 5.10179,-3.52276 4.33569,-3.16427 -1.09506,3.5966 -3.61501,7.92671 -2.40779,11.5986 0.1263,3.32603 2.99941,6.80021 6.58061,6.08371 3.3031,-1.29845 8.19392,-0.18459 7.96148,4.16786 0.29195,2.94616 0.72442,4.84696 5.07891,5.33661 2.11108,-7.28015 8.457057,-3.99833 11.909967,-5.1015 0.52671,-0.33518 -1.94296,2.72708 -3.37625,3.66169 l 9e-5,0 z"
         id="path5717"
         style="fill:#000000;fill-opacity:1;stroke:none" />
      <path
         d="m 94.405263,299.18743 c 1.50635,0.23317 3.06177,0.79326 4.08192,1.97512 0.91207,1.21587 0.98538,2.81501 0.87384,4.27327 0.0389,1.00991 0.0733,2.18254 -0.7182,2.94082 -0.80928,0.92635 -1.66656,1.8119 -2.46797,2.74408 -0.67366,0.59555 -1.69318,0.38861 -2.37665,-0.0777 -1.29767,-0.8326 -1.83741,-2.34624 -2.68541,-3.5626 -0.59384,-0.86903 -0.95846,-1.85902 -1.25609,-2.86115 -0.22733,-0.75585 -0.52438,-1.48741 -0.8392,-2.20877 -0.21325,-0.66112 -0.21957,-1.19012 0.29826,-1.6482 1.13601,-1.49761 3.5025,-1.55056 5.0894,-1.57582 z"
         id="path5719"
         style="fill:#000000;fill-opacity:1;stroke:none" />
      <path
         d="m 77.262443,326.75845 c -0.95638,-1.31642 2.77264,0 3.07168,0.67181 1.91386,1.8187 3.21046,4.18826 5.13103,5.99142 1.79471,1.43932 4.3166,1.25424 6.37168,0.54891 2.19298,-1.50052 2.31525,-4.41511 2.37504,-6.81867 0.222,-2.45505 0.43476,-4.91302 0.55377,-7.37488 0.3551,-2.51966 1.39697,-6.00307 2.0937,-7.28598 3.869837,-7.12422 0.73506,-2.78391 1.34673,-4.08673 0.19868,-2.07033 -1.65101,-3.44019 -3.04628,-4.63662 -1.33726,-1.31448 -2.69745,-3.02 -4.74091,-3.08947 -1.76847,-0.068 -2.43052,1.8906 -2.9959,3.22451 -1.08481,3.27939 1.02904,6.4767 0.81875,9.76192 -0.49208,3.20167 -3.66801,5.29143 -3.87441,8.59706 0.36773,1.76672 -1.28261,2.79946 -2.74049,3.26531 -2.31845,-1.52385 -4.63861,0.10687 -4.36439,1.23141 z"
         id="path5721"
         style="fill:#000000;fill-opacity:1;stroke:none" />
      <path
         d="m 61.012313,316.83963 c -2.08928,-2.8631 -4.54525,-8.68596 -5.69355,-15.05627 -0.0194,-2.50072 1.86028,-4.51032 2.03904,-6.97898 0.78884,-2.86261 1.95156,-5.62612 2.37393,-8.582 0.61474,-2.51723 -0.31574,-5.59989 0.91674,-7.90873 1.12245,-1.73272 4.2296,-2.45991 6.16236,-3.09432 2.55468,0 11.18739,0.93316 12.90739,2.50849 1.88544,-0.16516 -4.19526,0.9351 -6.06302,1.51558 -2.33429,1.38638 -4.35328,3.22402 -6.10795,5.28123 -2.2899,2.32973 -4.03826,5.20934 -4.77633,8.40907 -0.75964,2.21169 0.79257,3.21965 0.56509,5.54938 -0.46634,2.7125 -1.05887,6.78418 -0.37793,9.47629 0.37987,1.22704 -0.01,10.45948 -1.94573,8.88026 z"
         id="path5723"
         style="fill:#1f0000;fill-opacity:1;stroke:none" />
      <path
         d="m 62.489563,285.81628 c -0.25259,-0.5902 -1.3408,-0.86417 -0.60468,-0.57369 -1.36087,0.0486 -1.69595,-4.29804 -1.90609,-4.98637 1.14029,-1.85416 3.47288,0.88118 5.45781,0.52657 2.00713,0.0923 4.0468,0.0486 5.78283,-1.09928 1.86135,-0.93364 4.15839,-1.72107 6.2429,-2.17768 1.30083,-0.84329 3.8645,0.17001 1.5576,0.82677 -2.44592,0.69561 -3.90992,2.90147 -4.63788,4.29367 -2.60802,4.98734 -6.24261,3.50139 -9.77106,3.17058 -0.70708,0 -1.41425,0.0486 -2.12143,0 l 0,-4.8e-4 z"
         id="path5725"
         style="fill:#000000;fill-opacity:1;stroke:none" />
      <path
         d="m 95.027183,284.36385 c 2.11866,0.7675 9.754877,5.72424 12.059097,6.07157 0.98916,0.0923 4.12559,0.5596 5.1082,0.19916 0.76245,-0.46148 1.89905,-0.44205 1.40658,-0.73448 -1.35349,-1.02107 0.30117,-2.72902 -1.46599,-3.10597 -1.0835,-0.40805 -7.07098,-1.73321 -8.11945,-0.98611 -0.3857,0.30118 -8.949037,-1.91439 -8.988437,-1.44272 z"
         id="path5727"
         style="fill:#000000;fill-opacity:1;stroke:none" />
    </g>
    <path
       d="m 128.50381,347.0104 -0.0541,24.0698"
       id="path5731"
       style="fill:none;stroke:#000000;stroke-width:4.85723162px;stroke-linecap:butt;stroke-linejoin:miter;stroke-opacity:1" />
    <path
       d="m 126.10716,368.82608 14.52606,-0.0542"
       id="path5733"
       style="fill:none;stroke:#000000;stroke-width:4.85718966px;stroke-linecap:butt;stroke-linejoin:miter;stroke-opacity:1" />
    <path
       d="m 126.31567,349.43298 14.34965,-0.15552"
       id="path5735"
       style="fill:none;stroke:#000000;stroke-width:4.85391521px;stroke-linecap:butt;stroke-linejoin:miter;stroke-opacity:1" />
    <path
       d="m 143.04814,351.70516 -0.10736,14.65188"
       id="path5737"
       style="fill:none;stroke:#000000;stroke-width:4.85764408px;stroke-linecap:butt;stroke-linejoin:miter;stroke-opacity:1" />
    <g
       id="g4442"
       style="fill:#000000;fill-opacity:1">
      <rect
         width="4.2149205"
         height="4.2150002"
         x="150.14896"
         y="374.84363"
         id="rect4284"
         style="fill:#000000;fill-opacity:1;stroke:none" />
      <rect
         width="4.1256347"
         height="4.2150002"
         x="155.21552"
         y="374.85941"
         id="rect4286"
         style="fill:#000000;fill-opacity:1;stroke:none" />
      <rect
         width="4.2149205"
         height="4.2150002"
         x="160.15578"
         y="374.84363"
         id="rect4288"
         style="fill:#000000;fill-opacity:1;stroke:none" />
      <rect
         width="4.2149205"
         height="3.9624622"
         x="150.16475"
         y="380.03644"
         id="rect4290"
         style="fill:#000000;fill-opacity:1;stroke:none" />
      <rect
         width="4.2149205"
         height="3.9624622"
         x="150.25403"
         y="384.94714"
         id="rect4292"
         style="fill:#000000;fill-opacity:1;stroke:none" />
      <rect
         width="4.2149205"
         height="3.9624622"
         x="150.25403"
         y="389.94714"
         id="rect4294"
         style="fill:#000000;fill-opacity:1;stroke:none" />
      <rect
         width="4.2149205"
         height="3.9624622"
         x="150.25403"
         y="395.1257"
         id="rect4296"
         style="fill:#000000;fill-opacity:1;stroke:none" />
      <rect
         width="3.9470634"
         height="3.9624622"
         x="155.4326"
         y="384.94714"
         id="rect4298"
         style="fill:#000000;fill-opacity:1;stroke:none" />
      <rect
         width="3.9470634"
         height="3.9624622"
         x="160.34332"
         y="384.94714"
         id="rect4300"
         style="fill:#000000;fill-opacity:1;stroke:none" />
      <rect
         width="3.9470634"
         height="3.9624622"
         x="165.5219"
         y="380.1257"
         id="rect4302"
         style="fill:#000000;fill-opacity:1;stroke:none" />
      <rect
         width="3.9470634"
         height="3.9624622"
         x="165.61118"
         y="389.94714"
         id="rect4304"
         style="fill:#000000;fill-opacity:1;stroke:none" />
      <rect
         width="3.9470634"
         height="3.9624622"
         x="165.61118"
         y="395.03644"
         id="rect4306"
         style="fill:#000000;fill-opacity:1;stroke:none" />
      <rect
         width="3.9470634"
         height="3.9624622"
         x="174.80762"
         y="380.03641"
         id="rect4308"
         style="fill:#000000;fill-opacity:1;stroke:none" />
      <rect
         width="3.9470634"
         height="3.9624622"
         x="174.80762"
         y="384.94711"
         id="rect4310"
         style="fill:#000000;fill-opacity:1;stroke:none" />
      <rect
         width="3.9470634"
         height="3.9624622"
         x="174.80762"
         y="390.03641"
         id="rect4312"
         style="fill:#000000;fill-opacity:1;stroke:none" />
      <rect
         width="3.9470634"
         height="3.9624622"
         x="179.8969"
         y="395.1257"
         id="rect4314"
         style="fill:#000000;fill-opacity:1;stroke:none" />
      <rect
         width="3.9470634"
         height="3.9624622"
         x="184.80762"
         y="395.1257"
         id="rect4316"
         style="fill:#000000;fill-opacity:1;stroke:none" />
      <rect
         width="3.9470634"
         height="3.9624622"
         x="189.80762"
         y="395.1257"
         id="rect4318"
         style="fill:#000000;fill-opacity:1;stroke:none" />
      <rect
         width="3.9470634"
         height="3.9624622"
         x="179.71834"
         y="385.03641"
         id="rect4320"
         style="fill:#000000;fill-opacity:1;stroke:none" />
      <rect
         width="3.9470634"
         height="3.9624622"
         x="184.80762"
         y="385.03641"
         id="rect4322"
         style="fill:#000000;fill-opacity:1;stroke:none" />
      <rect
         width="3.9470634"
         height="4.0517478"
         x="179.62904"
         y="374.94711"
         id="rect4324"
         style="fill:#000000;fill-opacity:1;stroke:none" />
      <rect
         width="3.9470634"
         height="4.1410336"
         x="184.71832"
         y="374.85785"
         id="rect4326"
         style="fill:#000000;fill-opacity:1;stroke:none" />
      <rect
         width="3.9470634"
         height="4.1410336"
         x="189.71832"
         y="374.85785"
         id="rect4328"
         style="fill:#000000;fill-opacity:1;stroke:none" />
      <rect
         width="3.9470634"
         height="4.1410336"
         x="198.93597"
         y="374.85785"
         id="rect4330"
         style="fill:#000000;fill-opacity:1;stroke:none" />
      <rect
         width="3.9470634"
         height="4.1410336"
         x="198.93597"
         y="379.9086"
         id="rect4332"
         style="fill:#000000;fill-opacity:1;stroke:none" />
      <rect
         width="3.9470634"
         height="4.1410336"
         x="198.93597"
         y="384.95935"
         id="rect4334"
         style="fill:#000000;fill-opacity:1;stroke:none" />
      <rect
         width="3.9470634"
         height="4.1410336"
         x="198.93597"
         y="389.95935"
         id="rect4336"
         style="fill:#000000;fill-opacity:1;stroke:none" />
      <rect
         width="3.9470634"
         height="4.1410336"
         x="204.20383"
         y="395.04865"
         id="rect4338"
         style="fill:#000000;fill-opacity:1;stroke:none" />
      <rect
         width="3.9470634"
         height="4.1410336"
         x="209.20383"
         y="389.95935"
         id="rect4340"
         style="fill:#000000;fill-opacity:1;stroke:none" />
      <rect
         width="3.9470634"
         height="4.1410336"
         x="214.29311"
         y="384.95935"
         id="rect4342"
         style="fill:#000000;fill-opacity:1;stroke:none" />
      <rect
         width="3.9470634"
         height="4.1410336"
         x="214.29311"
         y="379.95935"
         id="rect4344"
         style="fill:#000000;fill-opacity:1;stroke:none" />
      <rect
         width="3.9470634"
         height="4.1410336"
         x="214.20383"
         y="374.87006"
         id="rect4346"
         style="fill:#000000;fill-opacity:1;stroke:none" />
      <rect
         width="3.9470634"
         height="4.1410336"
         x="223.1324"
         y="374.87006"
         id="rect4348"
         style="fill:#000000;fill-opacity:1;stroke:none" />
      <rect
         width="3.9470634"
         height="4.1410336"
         x="223.22168"
         y="379.95935"
         id="rect4350"
         style="fill:#000000;fill-opacity:1;stroke:none" />
      <rect
         width="3.9470634"
         height="4.1410336"
         x="228.40025"
         y="385.04865"
         id="rect4352"
         style="fill:#000000;fill-opacity:1;stroke:none" />
      <rect
         width="3.9470634"
         height="4.1410336"
         x="228.40025"
         y="390.04865"
         id="rect4354"
         style="fill:#000000;fill-opacity:1;stroke:none" />
      <rect
         width="3.9470634"
         height="4.1410336"
         x="228.48953"
         y="395.2272"
         id="rect4356"
         style="fill:#000000;fill-opacity:1;stroke:none" />
      <rect
         width="3.9470634"
         height="4.1410336"
         x="233.48953"
         y="374.87006"
         id="rect4358"
         style="fill:#000000;fill-opacity:1;stroke:none" />
      <rect
         width="3.9470634"
         height="4.1410336"
         x="233.48953"
         y="380.04861"
         id="rect4360"
         style="fill:#000000;fill-opacity:1;stroke:none" />
    </g>
    <path
       d="m 154.79533,372.15456 0.25,29.5"
       id="path5991"
       style="fill:none;stroke:#ffffff;stroke-width:1px;stroke-linecap:butt;stroke-linejoin:miter;stroke-opacity:1" />
    <path
       d="m 152.54771,346.60652 0,24.47347"
       id="path5739"
       style="fill:none;stroke:#000000;stroke-width:4.85764408px;stroke-linecap:butt;stroke-linejoin:miter;stroke-opacity:1" />
    <path
       d="m 162.31563,346.71386 0,24.47347"
       id="path5741"
       style="fill:none;stroke:#000000;stroke-width:4.85764408px;stroke-linecap:butt;stroke-linejoin:miter;stroke-opacity:1" />
    <path
       d="m 161.13489,359.1116 13.41747,2e-5"
       id="path5743"
       style="fill:none;stroke:#000000;stroke-width:4.85764408px;stroke-linecap:butt;stroke-linejoin:miter;stroke-opacity:1" />
    <path
       d="m 177.02118,346.87487 -0.0537,9.76792"
       id="path5745"
       style="fill:none;stroke:#000000;stroke-width:4.85764408px;stroke-linecap:butt;stroke-linejoin:miter;stroke-opacity:1" />
    <path
       d="m 177.02118,361.47308 -0.0537,9.71425"
       id="path5747"
       style="fill:none;stroke:#000000;stroke-width:4.85764408px;stroke-linecap:butt;stroke-linejoin:miter;stroke-opacity:1" />
    <path
       d="m 186.68176,346.98221 0,19.32116"
       id="path5749"
       style="fill:none;stroke:#000000;stroke-width:4.85764408px;stroke-linecap:butt;stroke-linejoin:miter;stroke-opacity:1" />
    <path
       d="m 201.2263,346.92854 0.16103,19.4285"
       id="path5751"
       style="fill:none;stroke:#000000;stroke-width:4.85764408px;stroke-linecap:butt;stroke-linejoin:miter;stroke-opacity:1" />
    <path
       d="m 189.15057,368.77219 9.87526,-0.0536"
       id="path5753"
       style="fill:none;stroke:#000000;stroke-width:4.85764408px;stroke-linecap:butt;stroke-linejoin:miter;stroke-opacity:1" />
    <path
       d="m 164.86676,372.40456 0.25,29.5"
       id="path5995"
       style="fill:none;stroke:#ffffff;stroke-width:1px;stroke-linecap:butt;stroke-linejoin:miter;stroke-opacity:1" />
    <path
       d="m 164.86676,372.40456 0.25,29.5"
       id="path5997"
       style="fill:none;stroke:#ffffff;stroke-width:1px;stroke-linecap:butt;stroke-linejoin:miter;stroke-opacity:1" />
  </g>
</svg>
